<?xml version="1.0" standalone="no"?>
<!DOCTYPE svg PUBLIC "-//W3C//DTD SVG 20010904//EN"
 "http://www.w3.org/TR/2001/REC-SVG-20010904/DTD/svg10.dtd">
<svg version="1.0" xmlns="http://www.w3.org/2000/svg"
 width="735.000000pt" height="752.000000pt" viewBox="0 0 735.000000 752.000000"
 preserveAspectRatio="xMidYMid meet">

<g transform="translate(0.000000,752.000000) scale(0.100000,-0.100000)"
 stroke="none">
<path d="M2354 6849 c-45 -13 -266 -234 -308 -308 -5 -9 -12 -18 -16 -21 -10
-8 -65 -102 -88 -152 -12 -27 -31 -67 -42 -90 -74 -161 -120 -378 -120 -565
l0 -135 -27 17 c-216 137 -444 345 -571 520 -102 141 -181 301 -257 520 -31
88 -43 110 -73 128 -68 40 -106 13 -175 -123 -29 -58 -68 -141 -86 -185 -18
-44 -37 -89 -42 -100 -14 -33 -66 -197 -78 -249 -37 -156 -44 -218 -48 -481
-4 -237 -2 -288 16 -420 12 -82 29 -179 37 -215 8 -36 19 -83 24 -105 44 -201
205 -506 362 -687 27 -32 47 -62 43 -68 -11 -18 -288 -12 -405 9 -139 26 -183
36 -255 60 -90 31 -127 28 -161 -11 l-27 -33 6 -160 c16 -380 85 -620 250
-865 68 -101 84 -120 190 -228 135 -136 286 -233 502 -322 44 -18 81 -34 83
-35 2 -2 16 -38 31 -81 41 -113 110 -262 179 -386 23 -42 32 -70 32 -104 0
-26 4 -61 10 -78 5 -17 23 -75 40 -130 60 -193 138 -303 255 -359 51 -25 174
-57 219 -57 13 0 31 -6 38 -13 7 -6 51 -43 98 -80 47 -38 92 -74 101 -81 36
-29 221 -147 304 -193 159 -88 276 -140 455 -199 465 -156 946 -191 1400 -102
58 11 119 23 135 25 41 7 226 61 247 73 10 6 23 10 30 10 15 0 125 44 135 54
3 3 12 6 19 6 26 0 254 113 369 183 35 21 227 149 244 162 57 46 157 130 162
138 4 5 49 17 100 28 110 22 186 58 238 114 41 44 101 138 101 158 0 7 4 17 9
23 10 11 60 181 76 259 4 17 34 79 68 140 75 132 141 275 192 413 l39 104 109
54 c172 87 289 175 402 304 49 56 146 187 172 233 129 226 182 410 203 702 5
77 12 169 15 205 4 52 1 73 -14 100 -26 49 -58 58 -134 37 -147 -41 -247 -65
-315 -76 -90 -14 -287 -14 -312 -1 -18 10 -16 15 33 81 29 39 57 78 62 87 6 9
12 19 15 22 12 12 81 131 115 198 48 97 103 242 123 327 6 22 17 66 25 97 9
32 26 126 38 210 20 129 23 195 23 423 1 322 -10 406 -82 660 -36 126 -147
406 -164 413 -4 2 -8 9 -8 16 0 23 -31 75 -57 96 -38 30 -63 26 -121 -16 -4
-3 -81 -220 -94 -264 -20 -70 -139 -297 -200 -381 -111 -152 -247 -297 -369
-391 -31 -24 -71 -54 -89 -68 -18 -14 -45 -33 -61 -43 l-29 -19 0 139 c0 266
-80 549 -223 788 -66 110 -259 325 -307 343 -53 20 -115 -18 -126 -77 -26
-140 -166 -384 -310 -541 -42 -46 -72 -80 -94 -108 -15 -18 -23 -21 -37 -13
-20 11 -180 55 -258 71 -195 41 -299 52 -545 57 -223 4 -275 2 -410 -16 -85
-12 -173 -25 -195 -30 -22 -6 -83 -20 -135 -32 -52 -12 -99 -26 -105 -30 -22
-21 -48 -4 -128 84 -187 203 -273 333 -327 497 -30 92 -41 111 -75 132 -16 10
-32 18 -35 17 -3 0 -19 -5 -36 -10z m0 -301 c9 -36 104 -197 155 -263 25 -33
55 -73 65 -90 11 -16 44 -56 74 -87 l55 -58 -29 -10 c-159 -59 -412 -203 -590
-335 -48 -36 -90 -65 -95 -65 -15 0 -10 223 5 297 46 216 168 465 289 591 46
48 62 52 71 20z m2899 -50 c99 -130 181 -305 230 -494 23 -84 27 -122 27 -232
0 -73 -3 -132 -6 -132 -3 0 -31 20 -62 44 -90 69 -249 169 -357 226 -163 86
-233 120 -244 120 -19 0 -13 11 42 74 100 116 251 357 281 449 10 32 34 17 89
-55z m-4427 -146 c23 -61 82 -173 136 -259 40 -64 49 -76 73 -106 6 -7 26 -32
45 -57 53 -70 238 -256 310 -313 36 -28 75 -61 88 -74 12 -12 69 -53 125 -90
56 -36 104 -68 106 -70 3 -2 -16 -25 -40 -51 -25 -26 -65 -72 -90 -102 -24
-30 -49 -61 -55 -67 -21 -22 -181 -267 -215 -328 -63 -115 -119 -229 -119
-242 0 -7 -4 -13 -10 -13 -5 0 -10 -7 -10 -15 0 -13 -25 -75 -51 -127 -5 -10
-9 -26 -9 -36 0 -10 -4 -22 -8 -28 -5 -5 -15 -28 -22 -51 -7 -24 -17 -43 -21
-43 -4 0 -40 43 -80 96 -40 53 -83 108 -96 122 -28 30 -133 243 -162 327 -80
236 -116 515 -108 830 7 267 37 421 129 657 46 119 54 122 84 40z m5821 31
c150 -349 190 -803 112 -1268 -11 -66 -27 -145 -36 -175 -8 -30 -19 -72 -24
-92 -18 -73 -114 -290 -142 -320 -22 -25 -57 -77 -57 -87 0 -5 -4 -11 -8 -13
-5 -1 -23 -25 -41 -51 -18 -27 -35 -47 -36 -45 -2 2 -20 45 -39 95 -54 142
-124 290 -202 431 -31 55 -174 266 -206 304 -13 15 -34 41 -46 57 -13 17 -40
49 -60 72 -75 85 -80 92 -75 103 2 6 39 34 81 61 73 48 273 225 358 316 22 24
64 76 94 114 30 39 57 72 60 75 32 28 175 294 228 423 6 15 15 27 19 27 5 0
13 -12 20 -27z m-4856 -1685 c63 -60 134 -125 204 -187 33 -30 90 -83 127
-118 37 -36 72 -62 78 -58 5 3 10 1 10 -5 0 -12 149 -160 160 -160 4 0 27 -18
51 -41 69 -63 192 -163 266 -216 38 -26 70 -51 71 -55 2 -5 7 -8 12 -8 5 0 37
-19 72 -42 35 -23 90 -57 123 -75 l60 -32 -28 -10 c-73 -28 -648 -34 -802 -8
-131 21 -288 57 -299 68 -6 5 -16 9 -24 9 -33 0 -239 102 -329 163 l-73 49 0
117 c0 64 4 121 9 127 5 5 12 29 15 54 12 93 34 160 94 277 46 90 124 193 147
193 6 0 31 -19 56 -42z m3985 8 c55 -64 62 -74 103 -153 23 -44 44 -97 48
-117 3 -20 9 -36 13 -36 4 0 10 -15 13 -32 3 -18 8 -44 12 -58 15 -56 31 -255
26 -326 -2 -34 -180 -144 -341 -211 -19 -8 -44 -18 -55 -23 -99 -42 -417 -90
-590 -90 -89 0 -348 16 -415 25 -14 2 -31 4 -37 4 -22 2 -14 17 15 32 112 58
484 346 559 433 17 20 35 36 42 36 6 0 11 4 11 9 0 13 67 81 80 81 5 0 10 7
10 15 0 8 5 15 12 15 6 0 57 44 112 98 56 54 155 151 221 215 66 64 123 117
126 117 4 0 20 -15 35 -34z m-466 -246 c0 -5 -4 -10 -10 -10 -5 0 -10 5 -10
10 0 6 5 10 10 10 6 0 10 -4 10 -10z m-4934 -495 c49 -9 112 -21 139 -26 75
-13 400 -33 435 -25 30 6 31 4 26 -22 -27 -136 -30 -179 -30 -457 1 -278 2
-311 27 -450 14 -83 29 -158 33 -168 8 -23 3 -22 -58 11 -29 16 -69 34 -88 42
-97 38 -283 216 -387 371 -112 166 -152 277 -202 565 -16 88 -15 187 2 181 8
-3 54 -13 103 -22z m6739 -130 c-25 -214 -62 -360 -121 -470 -61 -115 -106
-189 -124 -205 -3 -3 -21 -25 -39 -50 -64 -84 -187 -193 -261 -233 l-72 -37 5
32 c2 18 15 98 27 178 29 186 32 573 6 737 -21 134 -21 130 12 126 55 -8 396
32 512 61 30 7 59 10 63 6 5 -4 1 -69 -8 -145z m-4795 -584 l35 -7 3 -272 2
-271 -26 -18 c-17 -11 -54 -18 -108 -21 -71 -4 -88 -1 -126 18 -92 47 -180
163 -227 300 -29 85 -63 234 -54 243 35 35 371 54 501 28z m3273 -4 c75 -15
83 -24 68 -85 -7 -26 -19 -74 -27 -107 -36 -143 -79 -229 -153 -308 -67 -72
-108 -90 -195 -85 -39 3 -83 10 -98 16 l-28 12 0 274 c0 201 3 277 12 282 15
9 225 21 303 16 33 -1 86 -8 118 -15z m-2937 -48 c99 -17 203 -35 233 -40 30
-6 58 -12 63 -15 10 -6 10 -155 1 -313 -6 -113 -6 -113 -37 -133 -27 -17 -44
-19 -136 -15 -58 3 -136 13 -175 23 -141 35 -145 44 -145 309 0 173 3 215 16
215 1 0 82 -14 180 -31z m2402 -184 c2 -196 1 -212 -18 -243 -11 -18 -37 -40
-57 -48 -61 -26 -192 -46 -271 -42 -118 6 -115 -6 -117 396 l0 67 60 13 c33 6
98 19 145 28 47 8 117 21 155 28 39 8 77 13 85 12 13 -1 15 -33 18 -211z
m-1833 95 c28 -5 152 -14 278 -21 149 -8 227 -16 228 -23 0 -6 2 -18 4 -27 1
-8 0 -97 -4 -196 -7 -177 -7 -181 -34 -217 -37 -48 -72 -64 -175 -82 -143 -26
-331 5 -395 65 -60 55 -72 119 -62 348 l7 173 52 -6 c28 -3 74 -9 101 -14z
m1269 -150 c8 -200 2 -260 -31 -318 -32 -56 -83 -81 -203 -99 -86 -12 -109
-12 -190 1 -104 17 -150 41 -177 96 -15 29 -19 69 -21 238 l-3 202 73 1 c40 1
89 3 108 4 19 2 96 9 170 15 74 6 158 15 185 19 28 5 57 9 66 10 14 1 17 -22
23 -169z m-1543 -817 c65 -33 65 -35 61 -214 l-3 -128 -57 -11 c-96 -20 -277
-68 -462 -123 -46 -14 -88 -23 -92 -21 -4 3 -4 73 -1 157 5 134 9 158 31 202
30 63 57 92 105 116 65 34 138 48 253 48 101 1 115 -1 165 -26z m618 17 c46
-5 94 -16 107 -25 23 -15 24 -20 24 -135 0 -142 24 -126 -205 -135 -88 -3
-178 -9 -200 -14 -22 -5 -70 -12 -107 -16 l-68 -7 0 120 c0 133 3 139 76 179
72 40 211 52 373 33z m752 -9 c20 -6 55 -25 78 -41 l41 -30 0 -126 0 -126 -62
7 c-35 3 -79 11 -98 16 -19 5 -107 12 -195 15 -88 4 -166 11 -172 17 -9 6 -13
44 -13 122 0 134 4 140 106 154 82 12 264 7 315 -8z m604 -2 c95 -29 139 -72
183 -179 13 -31 23 -318 12 -325 -5 -3 -26 1 -47 9 -21 8 -78 26 -128 41 -49
14 -117 35 -151 45 -34 10 -102 28 -151 40 l-91 22 -6 36 c-3 21 -6 86 -6 145
0 102 1 109 25 133 42 42 82 53 191 54 76 0 119 -5 169 -21z m-2719 -31 c16
-7 41 -25 57 -40 l27 -28 0 -214 c0 -159 -3 -216 -12 -224 -13 -10 -112 -34
-218 -54 -30 -6 -105 -12 -165 -15 -126 -5 -176 9 -231 66 l-31 32 19 82 c25
110 65 192 124 253 70 73 168 134 249 155 40 11 144 3 181 -13z m3324 -11
c156 -76 241 -184 286 -367 21 -88 18 -107 -22 -146 -20 -19 -45 -34 -55 -34
-10 0 -21 -4 -24 -10 -8 -13 -182 -13 -237 0 -24 5 -84 19 -133 30 -50 12 -97
25 -104 29 -18 11 -29 402 -13 443 33 82 187 110 302 55z"/>
<path d="M1600 4540 c0 -5 5 -10 11 -10 5 0 7 5 4 10 -3 6 -8 10 -11 10 -2 0
-4 -4 -4 -10z"/>
<path d="M1585 4460 c3 -5 8 -10 11 -10 2 0 4 5 4 10 0 6 -5 10 -11 10 -5 0
-7 -4 -4 -10z"/>
</g>
</svg>
